<?xml version="1.0" encoding="UTF-8" standalone="no"?>
<svg
   xmlns:xml="http://www.w3.org/XML/1998/namespace"
   xmlns:svg="http://www.w3.org/2000/svg"
   xmlns="http://www.w3.org/2000/svg"
   xml:space="preserve"
   id="root"
   viewBox="-1188 0 2880 720"
   height="125.00000"
   width="500.00000"
   preserveAspectRatio="none"
   y="0.00000000"
   x="0.00000000"
   version="1.0">
  <path
     id="path29"
     style="fill:#ffffff;fill-rule:nonzero;stroke:none"
     d="M -3453.6774,-4786.1861 L -3453.6774,-4786.1861" />
  <path
     id="path45"
     style="fill:#fff;fill-rule:nonzero;stroke:none"
     d="M 1562.8926,572.48972 L 1570.1623,572.48972 C 1570.1623,587.41844 1576.1338,600.78938 1585.8699,610.52551 C 1595.6060,620.26163 1608.9770,626.23312 1623.9057,626.23312 C 1638.7046,626.23312 1652.2054,620.26163 1661.9415,610.52551 C 1671.6776,600.78938 1677.6491,587.41844 1677.6491,572.48972 L 1684.7889,572.48972 C 1684.7889,606.24161 1657.5278,633.50276 1623.9057,633.50276 L 1623.9057,629.86794 L 1623.9057,633.50276 C 1590.2836,633.50276 1563.0225,606.24161 1562.8926,572.48972 M 1677.6491,572.48972 C 1677.6491,557.69081 1671.6776,544.19005 1661.9415,534.58374 C 1652.2054,524.84762 1638.7046,518.74632 1623.9057,518.74632 L 1623.9057,511.60649 C 1657.5278,511.60649 1684.7889,538.86764 1684.7889,572.48972 L 1677.6491,572.48972 M 1623.9057,515.24131 L 1623.9057,511.60649 L 1623.9057,515.24131 M 1562.8926,572.48972 C 1563.0225,538.86764 1590.2836,511.60649 1623.9057,511.60649 L 1623.9057,518.74632 C 1608.9770,518.74632 1595.6060,524.84762 1585.8699,534.58374 C 1576.1338,544.19005 1570.1623,557.69081 1570.1623,572.48972 L 1562.8926,572.48972" />
  <path
     id="path47"
     style="fill:#fff;fill-rule:nonzero;stroke:none"
     d="M -247.50704,200.69962 L -140.53950,200.69962 L -140.53950,608.70810 L -247.50704,608.70810 L -247.50704,200.69962 z " />
  <path
     id="path49"
     style="fill:#fff;fill-rule:nonzero;stroke:none"
     d="M 1317.5423,434.75602 L 1317.5423,607.15032 L 1209.9257,606.76087 L 1209.9257,188.10757 L 1403.7395,354.91981 L 1403.7395,200.69962 L 1510.4474,200.69962 L 1510.4474,623.76663 L 1317.5423,434.75602" />
  <path
     id="path51"
     style="fill:#fff;fill-rule:nonzero;stroke:none"
     d="M -785.46032,403.60043 C -785.46032,287.80547 -691.47427,193.81942 -575.67931,193.81942 C -523.49369,193.81942 -475.72178,213.03204 -438.98414,244.57708 L -508.30534,323.24496 C -526.47943,307.92679 -549.97594,298.70993 -575.67931,298.70993 C -633.57679,298.70993 -680.56981,345.70295 -680.56981,403.60043 C -680.56981,461.49791 -633.57679,508.49093 -575.67931,508.49093 C -549.58650,508.49093 -525.70054,498.88462 -507.26682,483.04720 L -438.07543,561.84489 C -474.81307,593.90919 -522.97443,613.25162 -575.67931,613.25162 C -691.47427,613.25162 -785.46032,519.39539 -785.46032,403.60043" />
  <path
     id="path53"
     style="fill:#fff;fill-rule:nonzero;stroke:none"
     d="M 63.140200,702.04507 L -139.24135,164.35142 L -308.39027,164.35142 L -308.39027,610.26588 L -419.12245,610.26588 L -419.12245,164.35142 L -664.21313,164.35142 L -607.35416,57.254067 L -60.184030,57.254067 L 63.140200,379.45484 L 186.59424,57.254067 L 716.36917,57.254067 L 774.78591,164.35142 L 265.65157,164.35142 L 63.140200,702.04507" />
  <path
     id="path55"
     style="fill:#fff;fill-rule:nonzero;stroke:none"
     d="M 405.07285,607.15032 L 405.07285,517.05872 L 478.54813,517.05872 C 490.49111,517.05872 513.20873,516.15002 518.92059,497.19703 C 530.73375,457.73328 409.74619,393.73449 409.74619,295.59437 C 409.74619,221.34020 463.48959,199.14184 499.96760,199.14184 L 611.34885,199.14184 L 611.34885,287.67565 L 542.54692,287.67565 C 542.54692,287.67565 522.81504,287.67565 517.36281,295.59437 C 487.50536,338.30350 627.96517,400.74450 627.96517,515.50094 C 627.96517,575.47546 576.55844,607.15032 525.28152,607.15032 L 405.07285,607.15032" />
  <path
     id="path57"
     style="fill:#fff;fill-rule:nonzero;stroke:none"
     d="M 267.20935,199.14184 L 374.30670,199.14184 L 374.30670,607.15032 L 267.20935,607.15032 L 267.20935,199.14184 z " />
  <path
     id="path59"
     style="fill:#fff;fill-rule:nonzero;stroke:none"
     d="M 645.36038,199.14184 L 752.45774,199.14184 L 752.45774,607.15032 L 645.36038,607.15032 L 645.36038,199.14184 z " />
  <path
     id="path61"
     style="fill:#fff;fill-rule:nonzero;stroke:none"
     d="M 1639.7431,603.64531 C 1637.9257,599.36142 1638.1853,592.87067 1637.4064,587.41844 C 1636.3679,580.27862 1633.6418,577.16306 1626.1125,577.16306 L 1611.1838,577.16306 L 1611.1838,603.64531 L 1596.3849,603.64531 L 1596.3849,535.88189 L 1632.8629,535.88189 C 1645.0655,535.88189 1652.7246,544.31987 1652.7246,554.57525 C 1652.7246,562.62378 1649.4792,568.59527 1641.9500,571.58101 L 1641.9500,571.84064 C 1649.3494,573.65805 1651.4265,580.79788 1651.8159,587.67807 C 1652.2054,591.96196 1652.0755,599.88068 1654.6718,603.64531 L 1639.7431,603.64531 M 1611.1838,566.64804 L 1627.5405,566.64804 C 1634.1611,566.64804 1637.7959,563.79211 1637.7959,556.91192 C 1637.7959,550.42117 1634.1611,547.56524 1627.5405,547.56524 L 1611.1838,547.56524 L 1611.1838,566.64804" />
  <path
     id="path63"
     style="fill:#fff;fill-rule:nonzero;stroke:none"
     d="M -866.72449,608.70810 L -895.15397,532.76633 L -1027.9547,532.76633 L -1056.3842,608.70810 L -1170.2319,608.70810 L -961.48943,11.039935 L -752.74694,608.70810 L -866.72449,608.70810 M -995.50095,423.72175 L -932.28106,423.72175 L -963.95591,319.35051 L -995.50095,423.72175" />
  <path
     id="path65"
     style="fill:#fff;fill-rule:nonzero;stroke:none"
     d="M 771.92998,403.47061 C 771.92998,287.54584 866.04584,193.42998 982.10043,193.42998 C 1098.0252,193.42998 1192.1411,287.54584 1192.1411,403.47061 C 1192.1411,519.52521 1098.0252,613.64106 982.10043,613.64106 C 866.04584,613.64106 771.92998,519.52521 771.92998,403.47061 M 877.72919,403.47061 C 877.72919,461.10847 924.46258,507.84186 982.10043,507.84186 C 1039.6085,507.84186 1086.3419,461.10847 1086.3419,403.47061 C 1086.3419,345.96258 1039.6085,299.22919 982.10043,299.22919 C 924.46258,299.22919 877.72919,345.96258 877.72919,403.47061" />
</svg>
